<?xml version="1.0" encoding="UTF-8" standalone="no"?><!DOCTYPE svg PUBLIC "-//W3C//DTD SVG 1.1//EN" "http://www.w3.org/Graphics/SVG/1.1/DTD/svg11.dtd"><svg width="100%" height="100%" viewBox="0 0 1000 1000" version="1.1" xmlns="http://www.w3.org/2000/svg" xmlns:xlink="http://www.w3.org/1999/xlink" xml:space="preserve" xmlns:serif="http://www.serif.com/" style="fill-rule:evenodd;clip-rule:evenodd;stroke-linejoin:round;stroke-miterlimit:2;"><g id="Logo"><g id="Rueda"><g id="Verde"><circle cx="843.565" cy="699.054" r="76.734" style="fill:#4cff5b;"/><path d="M863.381,624.907c0.26,-0.761 0.518,-1.522 0.774,-2.285c12.843,-38.303 19.802,-79.295 19.802,-121.899c0,-147.106 -82.969,-274.987 -204.625,-339.359l-0,-28.692c136.245,66.465 230.203,206.372 230.203,368.051c0,47.255 -8.026,92.65 -22.789,134.895c-1.555,-1.056 -3.16,-2.063 -4.814,-3.018c-5.963,-3.443 -12.199,-5.994 -18.551,-7.693Z" style="fill:#4cff5b;"/></g><g id="Coral"><circle cx="156.435" cy="700.077" r="76.734" style="fill:#ff5b4c;"/><path d="M210.868,752.64c0.339,0.386 1.679,1.771 2.019,2.156c70.317,79.466 173.049,129.599 287.398,129.599c75.082,-0 145.156,-21.614 204.334,-58.954l24.816,14.327c-65.4,44.312 -144.275,70.205 -229.15,70.205c-123.469,-0 -234.24,-54.795 -309.303,-141.373c1.591,-0.778 15.186,-11.216 19.886,-15.96Z" style="fill:#ff5b4c;"/></g><g id="Violeta"><circle cx="500.285" cy="104.261" r="76.734" style="fill:#5b4cff;"/><path d="M426.175,124.215c-0.751,0.148 -1.501,0.297 -2.251,0.449c-175.224,35.444 -307.311,190.448 -307.311,376.059c-0,4.891 0.092,9.762 0.274,14.609l-24.842,14.345c-0.67,-9.565 -1.01,-19.22 -1.01,-28.954c-0,-199.719 143.372,-366.216 332.72,-402.094c-0.136,1.86 -0.204,3.738 -0.204,5.632c-0,6.901 0.913,13.591 2.624,19.954Z" style="fill:#5b4cff;"/></g></g><g><path d="M216.602,317.773l47.07,0c19.726,0 34.391,2.572 43.994,7.715c9.603,5.144 14.404,12.956 14.404,23.438c0,14.453 -9.049,25.423 -27.148,32.91c22.591,4.232 33.887,14.518 33.887,30.859c-0,11.133 -5.127,20.313 -15.381,27.539c-10.254,7.227 -28.207,10.84 -53.858,10.84l-46.972,0.098c-1.172,-2.865 -1.758,-5.632 -1.758,-8.301c-0,-1.758 0.488,-3.044 1.465,-3.857c0.976,-0.814 2.409,-1.221 4.297,-1.221l7.128,-0c0.391,-8.398 0.586,-26.888 0.586,-55.469c0,-25.781 -0.195,-42.838 -0.586,-51.172l-11.132,0c-1.172,-2.864 -1.758,-5.599 -1.758,-8.203c-0,-1.823 0.488,-3.141 1.465,-3.955c0.976,-0.814 2.409,-1.221 4.297,-1.221Zm37.89,73.438l0,22.852c0,7.486 0.879,12.402 2.637,14.746c1.758,2.343 6.575,3.515 14.453,3.515c8.203,0 14.176,-1.513 17.92,-4.541c3.743,-3.027 5.615,-7.991 5.615,-14.892c0,-7.422 -2.262,-13.054 -6.787,-16.895c-4.525,-3.841 -11.507,-5.762 -20.947,-5.762c-4.167,0 -8.464,0.326 -12.891,0.977Zm0,-17.871c3.255,0.651 7.227,0.976 11.914,0.976c7.813,0 13.428,-1.448 16.846,-4.345c3.418,-2.897 5.127,-7.471 5.127,-13.721c-0,-6.771 -1.823,-11.751 -5.469,-14.941c-3.646,-3.191 -9.147,-4.786 -16.504,-4.786c-3.841,0 -7.78,0.326 -11.816,0.977c-0.065,6.185 -0.098,18.132 -0.098,35.84Z" style="fill:#0af;"/><path d="M365.137,340.039c-5.86,0 -10.091,-1.123 -12.696,-3.369c-2.604,-2.246 -3.906,-5.42 -3.906,-9.522c0,-4.296 1.66,-7.828 4.981,-10.595c3.32,-2.767 8.04,-4.151 14.16,-4.151c6.25,0 10.677,1.188 13.281,3.565c2.604,2.376 3.906,5.485 3.906,9.326c0,4.232 -1.562,7.747 -4.687,10.547c-3.125,2.799 -8.138,4.199 -15.039,4.199Zm17.871,97.656l11.523,0c1.107,2.149 1.66,4.558 1.66,7.227c0,2.279 -0.472,3.874 -1.416,4.785c-0.944,0.911 -2.783,1.367 -5.517,1.367l-46.875,0c-1.107,-2.734 -1.66,-5.306 -1.66,-7.715c-0,-2.018 0.455,-3.466 1.367,-4.345c0.911,-0.879 2.376,-1.319 4.394,-1.319l8.008,0c0.326,-8.333 0.488,-17.22 0.488,-26.66c0,-14.388 -0.113,-23.942 -0.341,-28.662c-0.228,-4.72 -0.733,-8.171 -1.514,-10.352c-0.781,-2.181 -1.986,-3.548 -3.613,-4.101c-1.628,-0.553 -4.004,-0.83 -7.129,-0.83c-1.107,-1.823 -1.66,-3.939 -1.66,-6.348c-0,-3.646 1.497,-5.892 4.492,-6.738c2.995,-0.846 9.082,-1.27 18.262,-1.27c6.901,0 11.604,0.261 14.111,0.782c2.506,0.52 3.939,1.546 4.297,3.076c0.358,1.53 0.537,3.662 0.537,6.396l-0,48.047c0.065,9.44 0.26,18.327 0.586,26.66Z" style="fill:#0af;"/><path d="M451.27,365.723c-4.623,-0 -8.073,1.465 -10.352,4.394c-2.279,2.93 -3.418,8.724 -3.418,17.383c0,8.008 1.172,13.525 3.516,16.553c2.343,3.027 5.859,4.541 10.546,4.541c4.753,-0 8.269,-1.449 10.547,-4.346c2.279,-2.897 3.418,-8.675 3.418,-17.334c0,-7.422 -1.188,-12.809 -3.564,-16.162c-2.376,-3.353 -5.941,-5.029 -10.693,-5.029Zm36.425,-1.075c3.19,6.771 4.785,13.444 4.785,20.02c0,11.589 -3.841,20.817 -11.523,27.686c-7.682,6.868 -18.978,10.302 -33.887,10.302c-6.445,0 -10.498,0.619 -12.158,1.856c-1.66,1.237 -2.49,3.125 -2.49,5.664c-0,2.539 1.009,4.443 3.027,5.713c2.018,1.269 12.468,1.904 31.348,1.904c16.471,-0 27.327,1.839 32.568,5.518c5.241,3.678 7.862,9.033 7.862,16.064c-0,10.742 -5.762,19.206 -17.286,25.391c-11.523,6.185 -29.459,9.277 -53.808,9.277c-11.328,-0 -18.848,-1.432 -22.559,-4.297c-3.711,-2.864 -5.566,-6.868 -5.566,-12.012c-0,-3.776 1.025,-7.568 3.076,-11.377c2.051,-3.808 4.899,-7.535 8.545,-11.181c-3.32,-1.107 -6.006,-2.995 -8.057,-5.664c-2.051,-2.67 -3.076,-5.925 -3.076,-9.766c0,-4.557 1.53,-8.561 4.59,-12.012c3.06,-3.45 7.161,-6.347 12.305,-8.691c-4.297,-1.823 -7.829,-5.046 -10.596,-9.668c-2.767,-4.622 -4.183,-10.514 -4.248,-17.676c-0,-11.523 3.808,-21.077 11.426,-28.662c7.617,-7.585 19.043,-11.377 34.277,-11.377c7.682,0 15.137,1.27 22.363,3.809c9.31,-4.362 14.844,-6.543 16.602,-6.543c9.44,-0 14.632,0.244 15.576,0.732c0.944,0.488 1.416,1.384 1.416,2.686c0,1.888 -0.928,4.704 -2.783,8.447c-1.856,3.744 -3.63,5.615 -5.322,5.615c-1.693,0 -6.576,-1.562 -14.649,-4.687l-1.758,2.929Zm-51.66,91.895c-1.497,1.758 -2.685,3.792 -3.564,6.103c-0.879,2.312 -1.319,4.574 -1.319,6.788c0.065,3.841 1.254,6.559 3.565,8.154c2.311,1.595 7.08,2.392 14.306,2.392c10.092,0 17.627,-1.139 22.608,-3.418c4.98,-2.278 7.471,-5.664 7.471,-10.156c-0,-3.776 -1.823,-6.364 -5.469,-7.763c-3.646,-1.4 -16.179,-2.1 -37.598,-2.1Z" style="fill:#0af;"/><path d="M533.496,404.004c0,-29.557 -0.13,-48.112 -0.391,-55.664c-0.26,-7.552 -0.748,-12.712 -1.464,-15.479c-0.717,-2.767 -1.97,-4.557 -3.76,-5.371c-1.791,-0.814 -4.118,-1.22 -6.983,-1.22c-1.171,-2.67 -1.757,-5.339 -1.757,-8.008c-0,-2.735 1.025,-4.476 3.076,-5.225c2.051,-0.749 8.61,-1.123 19.678,-1.123c6.901,0 11.621,0.277 14.16,0.83c2.539,0.554 3.987,1.579 4.345,3.076c0.358,1.498 0.537,3.614 0.537,6.348l0,75.098c0,18.619 0.163,32.096 0.489,40.429l12.5,0c1.107,2.149 1.66,4.558 1.66,7.227c-0,2.279 -0.472,3.874 -1.416,4.785c-0.944,0.911 -2.783,1.367 -5.518,1.367l-47.754,0c-1.171,-2.734 -1.757,-5.306 -1.757,-7.715c-0,-2.018 0.455,-3.466 1.367,-4.345c0.911,-0.879 2.376,-1.319 4.394,-1.319l8.008,0c0.391,-8.333 0.586,-19.563 0.586,-33.691Z" style="fill:#0af;"/><path d="M631.25,368.555c-4.818,-0 -8.496,1.953 -11.035,5.859c-2.539,3.906 -3.841,10.71 -3.906,20.41l5.175,0c7.227,0 12.745,-0.211 16.553,-0.635c3.809,-0.423 6.039,-1.139 6.69,-2.148c0.651,-1.009 0.976,-2.686 0.976,-5.029c0,-5.86 -1.269,-10.401 -3.808,-13.623c-2.54,-3.223 -6.088,-4.834 -10.645,-4.834Zm3.906,-16.895c13.542,0 23.373,3.076 29.492,9.229c6.12,6.152 9.18,15.869 9.18,29.15c0,6.576 -1.302,11.263 -3.906,14.063c-2.604,2.799 -8.301,4.199 -17.09,4.199l-36.328,-0c0.195,8.528 2.116,15.218 5.762,20.068c3.645,4.85 10.058,7.276 19.238,7.276c8.984,-0 18.229,-2.605 27.734,-7.813c3.386,3.32 5.078,6.901 5.078,10.742c0,5.209 -3.824,8.838 -11.474,10.889c-7.65,2.051 -16.618,3.076 -26.905,3.076c-17.708,0 -30.566,-3.581 -38.574,-10.742c-8.008,-7.162 -12.011,-18.978 -12.011,-35.449c-0,-17.123 4.508,-30.518 13.525,-40.186c9.017,-9.668 21.11,-14.502 36.279,-14.502Z" style="fill:#0af;"/><path d="M695.215,437.695c3.255,-4.492 11.621,-16.504 25.097,-36.035c-5.794,-8.854 -10.172,-15.462 -13.134,-19.824c-2.963,-4.362 -5.306,-7.634 -7.032,-9.815c-1.725,-2.181 -3.385,-3.548 -4.98,-4.101c-1.595,-0.553 -3.662,-0.83 -6.201,-0.83c-1.107,-1.823 -1.66,-4.232 -1.66,-7.227c-0,-3.06 1.66,-5.013 4.98,-5.859c3.32,-0.846 10.417,-1.27 21.289,-1.27c2.149,0 4.704,0.391 7.666,1.172c2.962,0.781 5.095,2.295 6.397,4.541c1.302,2.246 3.255,6.234 5.859,11.963c2.604,5.729 6.478,12.858 11.621,21.387c5.664,-9.05 9.863,-16.667 12.598,-22.852l-4.492,0c-1.172,-2.278 -1.758,-4.687 -1.758,-7.226c-0,-2.539 0.504,-4.379 1.514,-5.518c1.009,-1.139 2.653,-1.709 4.931,-1.709l29.492,0c1.172,2.214 1.758,4.557 1.758,7.031c0,2.865 -0.553,4.818 -1.66,5.86c-1.107,1.041 -3.06,1.562 -5.859,1.562l-0.586,0c-7.878,9.571 -16.179,20.996 -24.903,34.278c13.347,20.117 20.915,30.892 22.705,32.324c1.791,1.432 4.574,2.148 8.35,2.148c0.977,1.498 1.465,3.581 1.465,6.25c-0,3.06 -1.205,5.013 -3.613,5.86c-2.409,0.846 -6.185,1.269 -11.329,1.269c-8.789,0 -14.436,-0.179 -16.943,-0.537c-2.506,-0.358 -4.443,-1.448 -5.81,-3.271c-1.368,-1.823 -7.943,-13.217 -19.727,-34.18c-6.966,11.263 -11.165,19.466 -12.598,24.609l6.446,0c1.106,2.149 1.66,4.558 1.66,7.227c-0,2.279 -0.472,3.874 -1.416,4.785c-0.944,0.911 -2.783,1.367 -5.518,1.367l-32.031,0c-1.107,-2.734 -1.66,-5.306 -1.66,-7.715c-0,-2.018 0.456,-3.466 1.367,-4.345c0.911,-0.879 2.376,-1.319 4.395,-1.319l3.32,0Z" style="fill:#0af;"/><path d="M475.928,517.773l53.32,0c1.107,2.409 1.66,4.818 1.66,7.227c0,2.344 -0.423,3.955 -1.269,4.834c-0.847,0.879 -2.181,1.318 -4.004,1.318l-9.375,0.098c-0.391,8.268 -0.586,21.973 -0.586,41.113l-0,75.684c-0,9.114 -1.302,16.406 -3.906,21.875c-2.605,5.469 -6.755,9.863 -12.452,13.183c-5.696,3.321 -14.762,4.981 -27.197,4.981c-8.398,-0 -13.948,-0.749 -16.65,-2.246c-2.702,-1.498 -4.053,-4.199 -4.053,-8.106c0,-5.078 1.465,-9.602 4.395,-13.574c12.695,4.492 20.817,6.087 24.365,4.785c3.548,-1.302 5.322,-9.44 5.322,-24.414l0,-72.265c0,-19.076 -0.228,-32.78 -0.684,-41.114l-12.988,0c-1.107,-2.864 -1.66,-5.599 -1.66,-8.203c0,-1.823 0.488,-3.141 1.465,-3.955c0.976,-0.814 2.409,-1.221 4.297,-1.221Z" style="fill:#0af;"/></g></g></svg>