<svg version="1.1" id="Layer_1" xmlns:x="ns_extend;" xmlns:i="ns_ai;" xmlns:graph="ns_graphs;" xmlns="http://www.w3.org/2000/svg" xmlns:xlink="http://www.w3.org/1999/xlink" x="0px" y="0px" viewBox="0 0 1024 263" style="enable-background:new 0 0 1024 263;" xml:space="preserve">
 <style type="text/css">
  .st0{fill-rule:evenodd;clip-rule:evenodd;fill:#232425;}
 </style>
 <metadata>
  <sfw xmlns="ns_sfw;">
   <slices>
   </slices>
   <sliceSourceBounds bottomLeftOrigin="true" height="262.8" width="1024" x="0" y="0.2">
   </sliceSourceBounds>
  </sfw>
 </metadata>
 <g>
  <path class="st0" d="M162,6.6h13l113.7,197v0l-24.5,41.8l-99.5,0l10.1,17.4h-4.4l-10.1-17.4l-123.5,0h-0.1l-6.3-11.1h-7.8L0,195.1
		l0,0v0l29-50.2l26.8-15.5l44.4-76.9L91.3,37l21.4-37h45.5L162,6.6L162,6.6z M139.5,68L61,203.7h75.2l-8.7-15l81.9,0.1L139.5,68z
		 M531.2,82.3h-52.5v43.6h30v10.2h-30v54.7h-10.9V72h63.4V82.3z M804.8,190.8h-11.1V72h11.1V190.8z M650.5,190.8h-11.1V72h11.1
		V190.8z M617,82.3h-52.5v43.6h30v10.2h-30v54.7h-11V72H617V82.3z M901.5,82.3H870v108.5h-11.1V82.3h-31.7V72h74.4V82.3z
		 M683.9,190.8h-11V72h11.8l75.5,100.2V72h11.1v118.8h-10.8l-76.6-102L683.9,190.8L683.9,190.8z M972.7,190.8h-11.2v-29.1L910.3,72
		h12.6l44.2,77l44.2-77h12.6l-51.3,89.8L972.7,190.8L972.7,190.8z M458,190.8h-11.8l-46-103.7c-2.9,6.6-30.9,70.3-33.9,77.1
		c5.9,0,56.1,0.5,59,0.5l4.6,10c-10-0.1-54.9-0.2-68.2-0.2c-1.2,2.6-6.3,13.9-7.3,16.3h-11.8L395.2,72h10.1L458,190.8L458,190.8z">
  </path>
 </g>
</svg>