<?xml version="1.0" encoding="UTF-8" standalone="no"?><!DOCTYPE svg PUBLIC "-//W3C//DTD SVG 1.1//EN" "http://www.w3.org/Graphics/SVG/1.1/DTD/svg11.dtd"><svg width="100%" height="100%" viewBox="0 0 1000 1000" version="1.1" xmlns="http://www.w3.org/2000/svg" xmlns:xlink="http://www.w3.org/1999/xlink" xml:space="preserve" xmlns:serif="http://www.serif.com/" style="fill-rule:evenodd;clip-rule:evenodd;stroke-linejoin:round;stroke-miterlimit:2;"><g id="Logo"><g id="Rueda"><g id="Verde"><circle cx="843.565" cy="699.054" r="76.734" style="fill:#4cff5b;"/><path d="M863.381,624.907c0.26,-0.761 0.518,-1.522 0.774,-2.285c12.843,-38.303 19.802,-79.295 19.802,-121.899c0,-147.106 -82.969,-274.987 -204.625,-339.359l-0,-28.692c136.245,66.465 230.203,206.372 230.203,368.051c0,47.255 -8.026,92.65 -22.789,134.895c-1.555,-1.056 -3.16,-2.063 -4.814,-3.018c-5.963,-3.443 -12.199,-5.994 -18.551,-7.693Z" style="fill:#4cff5b;"/></g><g id="Coral"><circle cx="156.435" cy="700.077" r="76.734" style="fill:#ff5b4c;"/><path d="M210.868,752.64c0.339,0.386 1.679,1.771 2.019,2.156c70.317,79.466 173.049,129.599 287.398,129.599c75.082,-0 145.156,-21.614 204.334,-58.954l24.816,14.327c-65.4,44.312 -144.275,70.205 -229.15,70.205c-123.469,-0 -234.24,-54.795 -309.303,-141.373c1.591,-0.778 15.186,-11.216 19.886,-15.96Z" style="fill:#ff5b4c;"/></g><g id="Violeta"><circle cx="500.285" cy="104.261" r="76.734" style="fill:#5b4cff;"/><path d="M426.175,124.215c-0.751,0.148 -1.501,0.297 -2.251,0.449c-175.224,35.444 -307.311,190.448 -307.311,376.059c-0,4.891 0.092,9.762 0.274,14.609l-24.842,14.345c-0.67,-9.565 -1.01,-19.22 -1.01,-28.954c-0,-199.719 143.372,-366.216 332.72,-402.094c-0.136,1.86 -0.204,3.738 -0.204,5.632c-0,6.901 0.913,13.591 2.624,19.954Z" style="fill:#5b4cff;"/></g></g><g id="Marca-T" serif:id="Marca T"><g><g transform="matrix(195.833,0,0,195.833,545.803,648.759)"></g><text x="469.114px" y="648.759px" style="font-family:'Kefa-Bold', 'Kefa';font-weight:700;font-size:195.833px;fill:#0af;">J</text><path d="M222.539,320.737l46.084,-0c19.314,-0 33.671,2.517 43.073,7.553c9.401,5.035 14.102,12.684 14.102,22.946c0,14.151 -8.86,24.891 -26.579,32.221c22.117,4.149 33.176,14.234 33.176,30.256c0,10.915 -5.019,19.914 -15.058,26.999c-10.039,7.086 -27.616,10.628 -52.729,10.628l-45.989,0c-1.147,-2.804 -1.721,-5.513 -1.721,-8.127c0,-1.721 0.478,-2.98 1.434,-3.776c0.956,-0.797 2.359,-1.195 4.207,-1.195l6.98,-0c0.382,-8.223 0.573,-26.325 0.573,-54.307c0,-25.241 -0.191,-41.941 -0.573,-50.1l-10.9,0c-1.147,-2.804 -1.721,-5.481 -1.721,-8.031c0,-1.785 0.478,-3.076 1.434,-3.872c0.956,-0.797 2.359,-1.195 4.207,-1.195Zm37.097,71.898l-0,22.373c-0,7.33 0.86,12.143 2.581,14.437c1.721,2.295 6.438,3.442 14.151,3.442c8.031,0 13.879,-1.482 17.544,-4.445c3.665,-2.964 5.498,-7.825 5.498,-14.581c-0,-7.266 -2.215,-12.78 -6.645,-16.541c-4.43,-3.76 -11.266,-5.641 -20.509,-5.641c-4.079,0 -8.286,0.319 -12.62,0.956Zm-0,-17.496c3.187,0.637 7.075,0.956 11.664,0.956c7.649,-0 13.147,-1.418 16.493,-4.255c3.346,-2.836 5.02,-7.314 5.02,-13.433c-0,-6.629 -1.791,-11.505 -5.371,-14.628c-3.579,-3.124 -8.981,-4.685 -16.204,-4.685c-3.772,-0 -7.639,0.318 -11.602,0.956l-0,35.089Z" style="fill:#0af;fill-rule:nonzero;"/><path d="M367.962,342.536c-5.736,-0 -9.879,-1.1 -12.429,-3.299c-2.55,-2.199 -3.824,-5.306 -3.824,-9.322c-0,-4.207 1.625,-7.665 4.876,-10.374c3.25,-2.708 7.872,-4.063 13.863,-4.063c6.119,0 10.454,1.163 13.003,3.49c2.55,2.326 3.825,5.37 3.825,9.131c-0,4.143 -1.53,7.585 -4.59,10.326c-3.059,2.74 -7.967,4.111 -14.724,4.111Zm17.497,95.61l11.282,-0c1.084,2.103 1.625,4.462 1.625,7.075c0,2.231 -0.462,3.793 -1.386,4.685c-0.924,0.892 -2.725,1.339 -5.402,1.339l-45.893,-0c-1.083,-2.678 -1.625,-5.195 -1.625,-7.554c-0,-1.976 0.446,-3.394 1.338,-4.254c0.893,-0.861 2.327,-1.291 4.303,-1.291l7.84,-0c0.318,-8.159 0.478,-16.859 0.478,-26.102c-0,-14.086 -0.112,-23.44 -0.335,-28.061c-0.223,-4.621 -0.717,-8 -1.482,-10.135c-0.765,-2.135 -1.944,-3.474 -3.537,-4.016c-1.594,-0.541 -3.92,-0.812 -6.98,-0.812c-1.083,-1.785 -1.625,-3.857 -1.625,-6.215c-0,-3.569 1.466,-5.768 4.398,-6.597c2.932,-0.829 8.892,-1.243 17.879,-1.243c6.756,0 11.362,0.255 13.816,0.765c2.454,0.51 3.856,1.514 4.206,3.012c0.351,1.498 0.526,3.585 0.526,6.262l0,47.04c0.064,9.243 0.255,17.943 0.574,26.102Z" style="fill:#0af;fill-rule:nonzero;"/><path d="M452.291,367.681c-4.526,0 -7.904,1.434 -10.135,4.303c-2.231,2.868 -3.347,8.541 -3.347,17.018c0,7.84 1.148,13.242 3.442,16.206c2.295,2.964 5.737,4.446 10.326,4.446c4.653,0 8.095,-1.418 10.326,-4.255c2.231,-2.836 3.347,-8.493 3.347,-16.97c-0,-7.267 -1.164,-12.541 -3.49,-15.824c-2.327,-3.282 -5.816,-4.924 -10.469,-4.924Zm35.662,-1.051c3.123,6.628 4.685,13.162 4.685,19.6c0,11.345 -3.761,20.381 -11.282,27.105c-7.521,6.725 -18.58,10.087 -33.177,10.087c-6.31,-0 -10.278,0.606 -11.903,1.817c-1.626,1.211 -2.438,3.059 -2.438,5.545c-0,2.486 0.988,4.35 2.964,5.593c1.976,1.243 12.206,1.865 30.691,1.865c16.126,-0 26.754,1.8 31.886,5.402c5.131,3.601 7.696,8.843 7.696,15.727c0,10.518 -5.641,18.804 -16.923,24.859c-11.282,6.055 -28.842,9.083 -52.681,9.083c-11.091,0 -18.453,-1.402 -22.086,-4.207c-3.633,-2.804 -5.45,-6.724 -5.45,-11.76c0,-3.697 1.004,-7.41 3.012,-11.138c2.008,-3.729 4.796,-7.378 8.366,-10.948c-3.251,-1.083 -5.88,-2.932 -7.888,-5.545c-2.008,-2.614 -3.012,-5.801 -3.012,-9.561c0,-4.462 1.498,-8.382 4.494,-11.76c2.996,-3.379 7.011,-6.215 12.047,-8.51c-4.235,-1.784 -7.716,-4.939 -10.443,-9.465c-2.727,-4.526 -4.09,-10.294 -4.09,-17.305c0,-11.282 3.729,-20.636 11.186,-28.062c7.458,-7.426 18.644,-11.139 33.56,-11.139c7.521,0 14.819,1.243 21.894,3.729c9.115,-4.27 14.533,-6.406 16.254,-6.406c9.242,0 14.326,0.239 15.25,0.717c0.924,0.478 1.386,1.355 1.386,2.63c0,1.848 -0.908,4.605 -2.725,8.27c-1.816,3.665 -3.553,5.497 -5.21,5.497c-1.658,0 -6.438,-1.529 -14.342,-4.589l-1.721,2.869Zm-50.578,89.969c-1.466,1.721 -2.629,3.713 -3.489,5.975c-0.861,2.263 -1.291,4.478 -1.291,6.645c-0,3.761 1.133,6.422 3.4,7.984c2.268,1.561 6.947,2.342 14.037,2.342c9.899,0 17.292,-1.115 22.178,-3.346c4.886,-2.231 7.329,-5.546 7.329,-9.944c0,-3.697 -1.784,-6.23 -5.354,-7.601c-3.569,-1.37 -15.839,-2.055 -36.81,-2.055Z" style="fill:#0af;fill-rule:nonzero;"/><path d="M532.794,405.16c0,-28.938 -0.127,-47.104 -0.382,-54.497c-0.255,-7.394 -0.733,-12.446 -1.434,-15.155c-0.701,-2.709 -1.928,-4.461 -3.681,-5.258c-1.753,-0.797 -4.032,-1.195 -6.836,-1.195c-1.148,-2.614 -1.721,-5.227 -1.721,-7.84c-0,-2.677 1.004,-4.382 3.011,-5.115c2.008,-0.733 8.43,-1.1 19.266,-1.1c6.756,-0 11.377,0.271 13.863,0.813c2.486,0.541 3.904,1.545 4.255,3.011c0.35,1.466 0.526,3.538 0.526,6.215l-0,73.524c-0,18.23 0.159,31.424 0.478,39.583l12.238,-0c1.084,2.103 1.625,4.462 1.625,7.075c0,2.231 -0.462,3.793 -1.386,4.685c-0.924,0.892 -2.725,1.339 -5.402,1.339l-46.753,-0c-1.148,-2.678 -1.721,-5.195 -1.721,-7.554c-0,-1.976 0.446,-3.394 1.338,-4.254c0.893,-0.861 2.327,-1.291 4.303,-1.291l7.84,-0c0.382,-8.159 0.573,-19.154 0.573,-32.986Z" style="fill:#0af;fill-rule:nonzero;"/><path d="M678.23,402.806c0.117,1.733 -2.831,3.058 -2.831,3.058l-82.776,44.631c-0,0 -2.431,1.374 -3.835,0.402c-0.939,-0.65 -0.8,-3.796 -0.8,-3.796l-0,-89.351c-0,0 -0.258,-1.771 1.089,-2.469c1.667,-0.865 3.546,0.32 3.546,0.32l82.776,44.632c-0,-0 2.721,0.961 2.831,2.573Z" style="fill:#0af;"/><path d="M691.125,438.146c3.187,-4.398 11.377,-16.158 24.572,-35.28c-5.673,-8.669 -9.96,-15.138 -12.86,-19.409c-2.9,-4.271 -5.195,-7.474 -6.884,-9.609c-1.689,-2.135 -3.314,-3.474 -4.876,-4.016c-1.562,-0.541 -3.585,-0.812 -6.071,-0.812c-1.084,-1.785 -1.626,-4.143 -1.626,-7.075c0,-2.996 1.626,-4.908 4.877,-5.737c3.25,-0.829 10.198,-1.243 20.843,-1.243c2.103,0 4.605,0.383 7.505,1.147c2.9,0.765 4.988,2.247 6.262,4.446c1.275,2.199 3.187,6.103 5.737,11.713c2.55,5.609 6.342,12.588 11.378,20.938c5.545,-8.86 9.656,-16.317 12.333,-22.373l-4.398,0c-1.147,-2.231 -1.721,-4.589 -1.721,-7.075c0,-2.486 0.494,-4.286 1.482,-5.402c0.988,-1.115 2.598,-1.673 4.829,-1.673l28.874,0c1.147,2.167 1.721,4.462 1.721,6.884c-0,2.805 -0.542,4.717 -1.626,5.737c-1.083,1.019 -2.995,1.529 -5.736,1.529l-0.574,0c-7.712,9.37 -15.839,20.557 -24.38,33.56c13.066,19.695 20.476,30.244 22.229,31.647c1.753,1.402 4.478,2.103 8.175,2.103c0.956,1.466 1.434,3.506 1.434,6.119c-0,2.996 -1.179,4.908 -3.538,5.737c-2.358,0.828 -6.055,1.243 -11.091,1.243c-8.604,-0 -14.134,-0.176 -16.588,-0.526c-2.454,-0.351 -4.35,-1.419 -5.689,-3.203c-1.338,-1.785 -7.776,-12.939 -19.313,-33.464c-6.82,11.027 -10.931,19.058 -12.334,24.094l6.311,-0c1.083,2.103 1.625,4.462 1.625,7.075c-0,2.231 -0.462,3.793 -1.386,4.685c-0.925,0.892 -2.725,1.339 -5.402,1.339l-31.361,-0c-1.083,-2.678 -1.625,-5.195 -1.625,-7.554c0,-1.976 0.446,-3.394 1.339,-4.254c0.892,-0.861 2.326,-1.291 4.302,-1.291l3.251,-0Z" style="fill:#0af;fill-rule:nonzero;"/></g></g><rect x="382.606" y="368.242" width="0.537" height="23.097" style="fill:#ff557e;"/></g></svg>