<?xml version="1.0" encoding="UTF-8" standalone="no"?><!DOCTYPE svg PUBLIC "-//W3C//DTD SVG 1.1//EN" "http://www.w3.org/Graphics/SVG/1.1/DTD/svg11.dtd"><svg width="100%" height="100%" viewBox="0 0 2084 2084" version="1.1" xmlns="http://www.w3.org/2000/svg" xmlns:xlink="http://www.w3.org/1999/xlink" xml:space="preserve" xmlns:serif="http://www.serif.com/" style="fill-rule:evenodd;clip-rule:evenodd;stroke-linejoin:round;stroke-miterlimit:2;"><g id="Logo"><g id="Rueda"><g id="Verde"><circle cx="1757.43" cy="1456.36" r="159.863" style="fill:#4cff5b;"/><path d="M1798.71,1301.89c0.543,-1.585 1.08,-3.171 1.613,-4.76c26.756,-79.799 41.254,-165.199 41.254,-253.958c0,-306.471 -172.852,-572.889 -426.302,-706.997l-0,-59.774c283.844,138.467 479.59,429.94 479.59,766.771c0,98.449 -16.722,193.022 -47.478,281.033c-3.239,-2.201 -6.582,-4.299 -10.028,-6.288c-12.424,-7.173 -25.414,-12.487 -38.649,-16.027Z" style="fill:#4cff5b;"/></g><g id="Coral"><circle cx="325.906" cy="1458.49" r="159.863" style="fill:#ff5b4c;"/><path d="M439.309,1568c0.706,0.804 3.497,3.69 4.206,4.491c146.493,165.555 360.518,269.998 598.745,269.998c156.422,0 302.41,-45.029 425.697,-122.82l51.7,29.848c-136.25,92.315 -300.573,146.26 -477.397,146.26c-257.226,-0 -488,-114.156 -644.38,-294.526c3.315,-1.621 31.636,-23.367 41.429,-33.251Z" style="fill:#ff5b4c;"/></g><g id="Violeta"><circle cx="1042.26" cy="217.211" r="159.863" style="fill:#5b4cff;"/><path d="M887.865,258.782c-1.565,0.307 -3.128,0.618 -4.69,0.934c-365.049,73.843 -640.231,396.767 -640.231,783.456c-0,10.191 0.191,20.338 0.57,30.437l-51.753,29.885c-1.396,-19.927 -2.105,-40.042 -2.105,-60.322c-0,-416.08 298.691,-762.948 693.166,-837.695c-0.282,3.875 -0.425,7.788 -0.425,11.734c0,14.377 1.902,28.314 5.468,41.571Z" style="fill:#5b4cff;"/></g></g><g id="Marca-T" serif:id="Marca T"><path d="M451.253,698.649l98.063,0c41.097,0 71.649,5.358 91.655,16.073c20.006,10.715 30.009,26.991 30.009,48.828c-0,30.11 -18.853,52.965 -56.559,68.563c47.064,8.829 70.597,30.289 70.597,64.382c-0,23.225 -10.681,42.376 -32.044,57.453c-21.362,15.076 -58.763,22.615 -112.203,22.615l-97.859,-0c-2.442,-5.968 -3.662,-11.733 -3.662,-17.294c-0,-3.662 1.017,-6.341 3.051,-8.036c2.035,-1.696 5.019,-2.543 8.952,-2.543l14.852,-0c0.814,-17.497 1.221,-56.017 1.221,-115.56c-0,-53.711 -0.407,-89.247 -1.221,-106.608l-23.193,-0c-2.442,-5.968 -3.662,-11.665 -3.662,-17.09c-0,-3.798 1.017,-6.544 3.051,-8.24c2.035,-1.695 5.019,-2.543 8.952,-2.543Zm78.939,152.995l0,47.607c0,15.598 1.831,25.839 5.493,30.721c3.662,4.883 13.699,7.325 30.111,7.325c17.09,-0 29.534,-3.154 37.333,-9.461c7.799,-6.307 11.698,-16.649 11.698,-31.026c0,-15.462 -4.713,-27.195 -14.139,-35.197c-9.427,-8.002 -23.974,-12.004 -43.64,-12.004c-8.681,0 -17.633,0.679 -26.856,2.035Zm0,-37.232c6.782,1.357 15.055,2.035 24.821,2.035c16.276,-0 27.974,-3.018 35.095,-9.054c7.121,-6.035 10.681,-15.564 10.681,-28.584c0,-14.106 -3.809,-24.482 -11.428,-31.128c-7.616,-6.646 -19.11,-9.969 -34.481,-9.969c-8.026,-0 -16.255,0.678 -24.688,2.034l0,74.666Z" style="fill:#00b7a3;fill-rule:nonzero;"/><path d="M760.701,745.036c-12.207,-0 -21.023,-2.34 -26.448,-7.019c-5.425,-4.68 -8.138,-11.292 -8.138,-19.837c-0,-8.951 3.459,-16.31 10.376,-22.074c6.917,-5.764 16.751,-8.647 29.5,-8.647c13.021,0 22.244,2.476 27.669,7.426c5.426,4.951 8.139,11.427 8.139,19.43c-0,8.816 -3.256,16.14 -9.766,21.972c-6.511,5.833 -16.954,8.749 -31.332,8.749Zm37.232,203.45l24.007,0c2.306,4.476 3.459,9.495 3.459,15.056c-0,4.747 -0.984,8.07 -2.95,9.969c-1.967,1.899 -5.799,2.848 -11.495,2.848l-97.656,0c-2.306,-5.697 -3.459,-11.054 -3.459,-16.073c-0,-4.204 0.949,-7.222 2.848,-9.053c1.899,-1.831 4.951,-2.747 9.155,-2.747l16.683,0c0.679,-17.361 1.018,-35.875 1.018,-55.542c-0,-29.975 -0.238,-49.879 -0.712,-59.712c-0.475,-9.834 -1.526,-17.022 -3.154,-21.566c-1.628,-4.544 -4.137,-7.392 -7.528,-8.545c-3.39,-1.153 -8.341,-1.729 -14.851,-1.729c-2.306,-3.798 -3.459,-8.206 -3.459,-13.225c-0,-7.595 3.119,-12.275 9.359,-14.038c6.239,-1.763 18.92,-2.645 38.045,-2.645c14.377,0 24.177,0.543 29.398,1.628c5.222,1.085 8.206,3.221 8.952,6.409c0.746,3.187 1.119,7.629 1.119,13.326l0,100.097c0.136,19.667 0.543,38.181 1.221,55.542Z" style="fill:#00b7a3;fill-rule:nonzero;"/><path d="M940.145,798.543c-9.63,0 -16.819,3.052 -21.566,9.156c-4.747,6.103 -7.121,18.174 -7.121,36.214c0,16.683 2.442,28.178 7.325,34.485c4.882,6.307 12.207,9.46 21.972,9.46c9.901,0 17.226,-3.018 21.973,-9.053c4.747,-6.036 7.121,-18.074 7.121,-36.113c-0,-15.462 -2.476,-26.686 -7.426,-33.671c-4.951,-6.985 -12.377,-10.478 -22.278,-10.478Zm75.887,-2.238c6.646,14.106 9.969,28.009 9.969,41.708c-0,24.142 -8.002,43.369 -24.007,57.678c-16.005,14.309 -39.537,21.464 -70.598,21.464c-13.427,-0 -21.87,1.288 -25.329,3.866c-3.459,2.577 -5.188,6.51 -5.188,11.8c-0,5.289 2.102,9.257 6.307,11.901c4.205,2.645 25.974,3.968 65.307,3.968c34.316,-0 56.933,3.831 67.851,11.495c10.919,7.663 16.378,18.819 16.378,33.467c0,22.38 -12.004,40.012 -36.011,52.897c-24.007,12.886 -61.374,19.328 -112.101,19.328c-23.6,0 -39.266,-2.984 -46.997,-8.952c-7.731,-5.967 -11.597,-14.309 -11.597,-25.024c0,-7.867 2.137,-15.767 6.409,-23.702c4.272,-7.935 10.206,-15.7 17.802,-23.295c-6.917,-2.306 -12.512,-6.239 -16.785,-11.8c-4.272,-5.561 -6.408,-12.343 -6.408,-20.345c-0,-9.495 3.187,-17.836 9.562,-25.025c6.374,-7.188 14.919,-13.224 25.634,-18.107c-9.011,-3.797 -16.418,-10.511 -22.22,-20.141c-5.803,-9.63 -8.704,-21.905 -8.704,-36.825c-0,-24.007 7.935,-43.911 23.804,-59.713c15.869,-15.801 39.673,-23.702 71.411,-23.702c16.005,0 31.535,2.645 46.59,7.935c19.396,-9.087 30.924,-13.631 34.587,-13.631c19.666,-0 30.483,0.508 32.45,1.526c1.967,1.017 2.95,2.882 2.95,5.595c-0,3.933 -1.933,9.799 -5.798,17.598c-3.866,7.799 -7.562,11.698 -11.088,11.698c-3.527,0 -13.699,-3.255 -30.518,-9.765l-3.662,6.103Zm-107.625,191.447c-3.12,3.662 -5.595,7.901 -7.426,12.716c-1.831,4.815 -2.747,9.528 -2.747,14.14c0,8.002 2.412,13.665 7.235,16.988c4.826,3.323 14.782,4.984 29.869,4.984c21.066,0 36.797,-2.373 47.195,-7.12c10.397,-4.748 15.595,-11.8 15.595,-21.159c0,-7.867 -3.797,-13.258 -11.393,-16.175c-7.595,-2.916 -33.705,-4.374 -78.328,-4.374Z" style="fill:#00b7a3;fill-rule:nonzero;"/><path d="M1111.45,878.296c0,-61.578 -0.271,-100.233 -0.814,-115.967c-0.542,-15.733 -1.559,-26.482 -3.051,-32.247c-1.492,-5.764 -4.103,-9.494 -7.833,-11.19c-3.73,-1.695 -8.579,-2.543 -14.547,-2.543c-2.441,-5.561 -3.662,-11.122 -3.662,-16.683c-0,-5.696 2.136,-9.324 6.409,-10.884c4.272,-1.56 17.937,-2.34 40.995,-2.34c14.377,0 24.211,0.577 29.5,1.729c5.29,1.153 8.308,3.29 9.054,6.409c0.746,3.12 1.119,7.528 1.119,13.224l-0,156.454c-0,38.791 0.339,66.867 1.017,84.228l26.042,0c2.305,4.476 3.458,9.495 3.458,15.056c0,4.747 -0.983,8.07 -2.95,9.969c-1.966,1.899 -5.798,2.848 -11.495,2.848l-99.487,0c-2.441,-5.697 -3.662,-11.054 -3.662,-16.073c-0,-4.204 0.949,-7.222 2.848,-9.053c1.899,-1.831 4.951,-2.747 9.156,-2.747l16.682,0c0.814,-17.361 1.221,-40.758 1.221,-70.19Z" style="fill:#00b7a3;fill-rule:nonzero;"/><path d="M1315,804.443c-10.068,0 -17.757,4.069 -23.066,12.207c-5.306,8.138 -7.96,22.312 -7.96,42.522l10.783,-0c15.055,-0 26.55,-0.441 34.485,-1.323c7.935,-0.881 12.58,-2.373 13.936,-4.476c1.357,-2.102 2.035,-5.595 2.035,-10.477c-0,-12.208 -2.655,-21.668 -7.963,-28.382c-5.307,-6.714 -12.723,-10.071 -22.25,-10.071Zm8.24,-35.197c28.212,0 48.693,6.409 61.442,19.226c12.75,12.818 19.125,33.061 19.125,60.73c-0,13.699 -2.709,23.465 -8.126,29.297c-5.414,5.833 -17.262,8.749 -35.543,8.749l-75.553,-0c-0,17.768 3.811,31.704 11.434,41.809c7.625,10.105 21.035,15.157 40.229,15.157c18.788,-0 38.12,-5.425 57.996,-16.276c7.053,6.917 10.58,14.377 10.58,22.379c-0,10.851 -7.969,18.413 -23.906,22.685c-15.937,4.273 -34.62,6.409 -56.05,6.409c-36.893,-0 -63.68,-7.46 -80.363,-22.38c-16.683,-14.919 -25.025,-39.537 -25.025,-73.852c0,-35.672 9.393,-63.579 28.178,-83.72c18.786,-20.142 43.98,-30.213 75.582,-30.213Z" style="fill:#00b7a3;fill-rule:nonzero;"/><path d="M1448.36,948.486c6.782,-9.358 24.211,-34.383 52.287,-75.073c-12.071,-18.446 -21.193,-32.213 -27.364,-41.3c-6.171,-9.088 -11.054,-15.903 -14.648,-20.447c-3.595,-4.544 -7.053,-7.392 -10.376,-8.545c-3.323,-1.153 -7.63,-1.729 -12.92,-1.729c-2.305,-3.798 -3.458,-8.817 -3.458,-15.056c-0,-6.375 3.458,-10.444 10.376,-12.207c6.917,-1.763 21.701,-2.645 44.352,-2.645c4.476,0 9.799,0.814 15.971,2.442c6.171,1.627 10.613,4.781 13.326,9.46c2.713,4.68 6.782,12.987 12.207,24.923c5.425,11.936 13.495,26.788 24.21,44.556c11.801,-18.853 20.549,-34.723 26.246,-47.608l-9.359,0c-2.442,-4.747 -3.662,-9.765 -3.662,-15.055c-0,-5.29 1.051,-9.122 3.153,-11.495c2.103,-2.374 5.527,-3.561 10.274,-3.561l61.443,0c2.441,4.612 3.662,9.495 3.662,14.649c-0,5.968 -1.153,10.037 -3.459,12.207c-2.306,2.17 -6.375,3.255 -12.207,3.255l-1.221,0c-16.411,19.938 -33.705,43.742 -51.88,71.411c27.805,41.911 43.573,64.358 47.303,67.342c3.73,2.984 9.528,4.476 17.395,4.476c2.034,3.12 3.051,7.46 3.051,13.021c0,6.375 -2.509,10.444 -7.527,12.207c-5.019,1.763 -12.885,2.645 -23.601,2.645c-18.31,0 -30.076,-0.373 -35.298,-1.119c-5.222,-0.746 -9.257,-3.018 -12.105,-6.816c-2.849,-3.797 -16.548,-27.533 -41.097,-71.207c-14.513,23.464 -23.262,40.554 -26.246,51.269l13.428,0c2.306,4.476 3.459,9.495 3.459,15.056c-0,4.747 -0.984,8.07 -2.95,9.969c-1.967,1.899 -5.799,2.848 -11.495,2.848l-66.732,0c-2.306,-5.697 -3.459,-11.054 -3.459,-16.073c0,-4.204 0.95,-7.222 2.849,-9.053c1.899,-1.831 4.95,-2.747 9.155,-2.747l6.917,0Z" style="fill:#00b7a3;fill-rule:nonzero;"/><path d="M750.427,1154.38c-9.765,0 -18.242,0.678 -25.431,2.035c-0.678,18.988 -1.017,63.002 -1.017,132.039c-0,32.145 1.966,51.1 5.9,56.865c3.933,5.764 14.173,8.646 30.721,8.646c19.667,0 34.654,-6.442 44.962,-19.328c10.308,-12.885 15.463,-38.791 15.463,-77.718c-0,-38.384 -6.07,-65.07 -18.209,-80.057c-12.139,-14.988 -29.602,-22.482 -52.389,-22.482Zm-105.387,-39.062l85.856,-0c61.306,-0 103.353,9.739 126.139,29.217c22.787,19.476 34.18,51.814 34.18,97.014c0,50.085 -11.766,87.887 -35.299,113.405c-23.532,25.518 -63.442,38.277 -119.73,38.277l-99.488,0c-2.441,-5.968 -3.662,-11.732 -3.662,-17.293c0,-3.662 1.018,-6.341 3.052,-8.036c2.035,-1.696 5.018,-2.544 8.952,-2.544l14.852,0c0.814,-17.496 1.22,-63.001 1.22,-136.515c0,-39.741 -0.406,-68.291 -1.22,-85.653l-23.194,0c-2.441,-5.967 -3.662,-11.664 -3.662,-17.089c0,-3.798 1.018,-6.545 3.052,-8.24c2.035,-1.696 5.018,-2.543 8.952,-2.543Z" style="fill:#00b7a3;fill-rule:nonzero;"/><path d="M944.316,1115.32l185.14,-0c8.68,-0 14.885,1.322 18.615,3.967c3.73,2.645 5.595,8.104 5.595,16.378c0,10.037 -3.323,20.345 -9.969,30.924c-28.483,-11.529 -64.968,-17.293 -109.456,-17.293l-9.766,-0c-0.814,13.292 -1.221,40.351 -1.221,81.177l102.539,-0c2.306,7.188 3.459,14.648 3.459,22.379c0,4.612 -0.814,7.698 -2.441,9.257c-1.628,1.56 -4.747,2.34 -9.359,2.34l-94.198,-0c0.136,52.219 0.543,83.754 1.221,94.604l16.886,0c45.709,0 81.923,-5.357 108.643,-16.072c5.968,8.988 8.952,18.725 8.952,29.211c-0,7.492 -2.781,12.871 -8.342,16.139c-5.561,3.268 -16.818,4.902 -33.772,4.902l-180.868,0c-2.441,-5.968 -3.662,-11.732 -3.662,-17.293c0,-3.662 1.017,-6.341 3.052,-8.036c2.034,-1.696 5.018,-2.544 8.952,-2.544l14.851,0c0.814,-17.496 1.221,-63.001 1.221,-136.515c0,-39.741 -0.407,-68.291 -1.221,-85.653l-23.193,0c-2.441,-5.967 -3.662,-11.664 -3.662,-17.089c0,-3.798 1.017,-6.545 3.052,-8.24c2.034,-1.696 5.018,-2.543 8.952,-2.543Z" style="fill:#00b7a3;fill-rule:nonzero;"/><path d="M1368.92,1115.32l89.111,-0c2.306,5.018 3.459,10.037 3.459,15.055c-0,4.883 -0.882,8.24 -2.645,10.071c-1.763,1.831 -4.544,2.746 -8.342,2.746l-9.765,0c-8.816,26.178 -23.092,69.716 -42.826,130.616c-19.735,60.899 -32.79,96.639 -39.165,107.218c-6.374,10.58 -19.734,15.869 -40.079,15.869c-21.566,0 -33.502,-0.746 -35.808,-2.238c-2.306,-1.492 -14.953,-37.129 -37.943,-106.913c-22.99,-69.783 -39.775,-117.967 -50.354,-144.552l-17.09,0c-2.442,-5.967 -3.662,-11.664 -3.662,-17.089c-0,-3.798 1.017,-6.545 3.052,-8.24c2.034,-1.696 5.018,-2.543 8.951,-2.543l101.115,-0c2.306,5.018 3.459,10.037 3.459,15.055c-0,4.883 -0.882,8.24 -2.645,10.071c-1.763,1.831 -4.544,2.746 -8.341,2.746l-9.969,0c2.983,14.649 13.19,50.829 30.619,108.541c17.429,57.712 27.398,86.569 29.907,86.569c2.509,-0 11.156,-28.551 25.94,-85.653c14.784,-57.102 22.651,-93.587 23.6,-109.457l-19.124,0c-2.306,-5.967 -3.459,-11.664 -3.459,-17.089c0,-3.798 0.984,-6.545 2.95,-8.24c1.967,-1.696 4.985,-2.543 9.054,-2.543Z" style="fill:#00b7a3;fill-rule:nonzero;"/></g></g></svg>